<svg id="Layer_1" data-name="Layer 1" xmlns="http://www.w3.org/2000/svg" viewBox="0 0 251 251"><defs><style>.cls-1{fill:#231f20;}</style></defs><title>logo-fusion</title><circle class="cls-1" cx="202.33506" cy="129.69914" r="32.72588"/><path class="cls-1" d="M132.6814,201.26787a32.6058,32.6058,0,1,1,.02772.39833Q132.69406,201.46714,132.6814,201.26787Z"/><path class="cls-1" d="M105.58964,89.66421a32.72688,32.72688,0,1,1,.14892-.10038Q105.66424,89.61422,105.58964,89.66421Z"/><path class="cls-1" d="M183.1488,89.54433a32.72353,32.72353,0,1,1,.01074-.00723Z"/><circle class="cls-1" cx="126.87122" cy="129.21235" r="32.72589"/><path class="cls-1" d="M57.28,189.04061a32.36626,32.36626,0,1,0,41.05509-20.2393l-.05783-.01958h0c-16.90237-5.63413-20.49863-11.9875-14.74463-29.24951a32.24639,32.24639,0,1,0-40.99726,20.25889c16.90238,5.754,20.49863,11.9875,14.62475,29.24951H57.28Z"/></svg>