<svg xmlns="http://www.w3.org/2000/svg" viewBox="0 0 431.9 432"><defs><style></style></defs><title>Asset 2</title><g id="Layer_2" data-name="Layer 2"><g id="Layer_1-2" data-name="Layer 1"><path class="cls-1" d="M346.5,276.3c-23.5,0-41.9-36.5-42.1-36.9,0-.1-.1-.1-.1-.2L219.2,92.8a2.94625,2.94625,0,0,0-2.5-1.5h0a3.08054,3.08054,0,0,0-2.5,1.4L132.4,232.5,117.9,257c0,.1-.1.1-.1.2a10.38969,10.38969,0,0,1-.6,1c-5.9,8.6-18.7,12.7-30.4,9.5C72.7,264,64.6,251,64.6,232.3c0-13.4,5.4-25.4,16.1-35.5a62.874,62.874,0,0,1,16.5-11.4,2.94805,2.94805,0,0,0,1.7-3.2,2.88446,2.88446,0,0,0-2.7-2.4c-1.4-.1-34.2-2.4-54.9,16.7-10.6,9.8-16,23.5-16,40.7,0,15.3,5.3,28.1,15.4,37.1,9.6,8.6,22.7,13.1,38,13.1a47.7803,47.7803,0,0,0,33.6-13.7,51.99708,51.99708,0,0,0,9.7-12.2,7.45739,7.45739,0,0,0,.7-1.2l24.2-41.4h69.9l9.4,16.1,4.1,7c3.2,6.8,3.1,20.1-1.8,27.9a12.45677,12.45677,0,0,1-11.1,6.3,2.9,2.9,0,0,0,0,5.8c32.8,0,48.8-9,54.2-12.9,5.6,4.1,23.7,12.9,74.6,12.9a2.90207,2.90207,0,0,0,2.9-2.9A2.46743,2.46743,0,0,0,346.5,276.3ZM182.1,159.1l31.5,54H150.5Z"/><path class="cls-1" d="M181.3,45.1a2.87814,2.87814,0,0,1-2.1-.9l-.4-.4c-.1-.2-.2-.3-.3-.5s-.1-.4-.2-.5c0-.2-.1-.4-.1-.6a1.26834,1.26834,0,0,1,.1-.6,1.42146,1.42146,0,0,1,.2-.6c.1-.2.2-.3.3-.5a.7808.7808,0,0,1,.4-.4l.4-.4c.2-.1.3-.2.5-.3s.4-.1.5-.2a2.04517,2.04517,0,0,1,1.1,0,1.42141,1.42141,0,0,1,.6.2c.2.1.3.2.5.3a.78073.78073,0,0,1,.4.4l.4.4c.1.2.2.3.3.5s.1.4.2.6c0,.2.1.4.1.6a1.26823,1.26823,0,0,1-.1.6.76385.76385,0,0,1-.2.5c-.1.2-.2.3-.3.5a.78082.78082,0,0,1-.4.4l-.4.4c-.2.1-.3.2-.5.3s-.4.1-.6.2Z"/><path class="cls-1" d="M193.2,102.3a2.92147,2.92147,0,0,0,2.3-3.4L189.9,71a2.90259,2.90259,0,0,0-5.7,1.1l5.6,27.9a2.9873,2.9873,0,0,0,2.9,2.4A1.0873,1.0873,0,0,1,193.2,102.3Z"/><path class="cls-1" d="M245.2,363.4a2.92143,2.92143,0,0,0,2.3-3.4l-11.6-58.5a2.90259,2.90259,0,0,0-5.7,1.1l11.6,58.5a2.98729,2.98729,0,0,0,2.9,2.4A.74946.74946,0,0,1,245.2,363.4Z"/><path class="cls-1" d="M252.5,391.9l.4-.4c.1-.2.2-.3.3-.5s.1-.4.2-.5c0-.2.1-.4.1-.6a1.26823,1.26823,0,0,0-.1-.6,1.42138,1.42138,0,0,0-.2-.6c-.1-.2-.2-.3-.3-.5a.7808.7808,0,0,0-.4-.4,2.85535,2.85535,0,0,0-2.6-.8.76385.76385,0,0,0-.5.2c-.2.1-.3.2-.5.3a.7808.7808,0,0,0-.4.4l-.4.4c-.1.2-.2.3-.3.5s-.1.4-.2.6c0,.2-.1.4-.1.6a1.2684,1.2684,0,0,0,.1.6.76385.76385,0,0,0,.2.5,2.18734,2.18734,0,0,0,.3.5.78082.78082,0,0,0,.4.4l.4.4c.2.1.3.2.5.3s.4.1.5.2c.2,0,.4.1.6.1A6.44032,6.44032,0,0,0,252.5,391.9Z"/><path class="cls-1" d="M299.3,202.4l61.6-12.3a2.90259,2.90259,0,0,0-1.1-5.7l-61.6,12.3a2.92143,2.92143,0,0,0-2.3,3.4,2.98729,2.98729,0,0,0,2.9,2.4A.74946.74946,0,0,1,299.3,202.4Z"/><path class="cls-1" d="M390.2,184.3a.76389.76389,0,0,0,.5-.2c.2-.1.3-.2.5-.3a.78069.78069,0,0,0,.4-.4,3.11815,3.11815,0,0,0,.9-2.1,1.26827,1.26827,0,0,0-.1-.6.76385.76385,0,0,0-.2-.5c-.1-.2-.2-.3-.3-.5a.78082.78082,0,0,0-.4-.4l-.4-.4c-.2-.1-.3-.2-.5-.3s-.4-.1-.5-.2a2.04494,2.04494,0,0,0-1.1,0,1.42145,1.42145,0,0,0-.6.2c-.2.1-.3.2-.5.3a.78076.78076,0,0,0-.4.4l-.4.4c-.1.2-.2.3-.3.5s-.1.4-.2.5c0,.2-.1.4-.1.6a2.87811,2.87811,0,0,0,.9,2.1l.4.4c.2.1.3.2.5.3s.4.1.6.2c.2,0,.4.1.6.1C389.8,184.4,390,184.3,390.2,184.3Z"/><path class="cls-1" d="M314.9,71.5a.76385.76385,0,0,0,.5-.2c.2-.1.3-.2.5-.3a.78071.78071,0,0,0,.4-.4l.4-.4c.1-.2.2-.3.3-.5s.1-.4.2-.5c0-.2.1-.4.1-.6a1.26834,1.26834,0,0,0-.1-.6,1.42134,1.42134,0,0,0-.2-.6c-.1-.2-.2-.3-.3-.5a.78084.78084,0,0,0-.4-.4,2.85539,2.85539,0,0,0-2.6-.8,1.42148,1.42148,0,0,0-.6.2c-.2.1-.3.2-.5.3a.78067.78067,0,0,0-.4.4l-.4.4c-.1.2-.2.3-.3.5s-.1.4-.2.6c0,.2-.1.4-.1.6a1.26836,1.26836,0,0,0,.1.6.76383.76383,0,0,0,.2.5c.1.2.2.3.3.5a.78091.78091,0,0,0,.4.4,3.11813,3.11813,0,0,0,2.1.9A1.26836,1.26836,0,0,0,314.9,71.5Z"/><path class="cls-1" d="M267.7,143.6l32.4-48.5a2.95381,2.95381,0,1,0-4.9-3.3l-32.3,48.6a3.02071,3.02071,0,0,0,.8,4.1,3.31974,3.31974,0,0,0,1.6.5A2.9057,2.9057,0,0,0,267.7,143.6Z"/><path class="cls-1" d="M136.4,340.1l33.1-49.6a2.95382,2.95382,0,0,0-4.9-3.3l-33.1,49.6a3.02069,3.02069,0,0,0,.8,4.1,3.31985,3.31985,0,0,0,1.6.5A2.76449,2.76449,0,0,0,136.4,340.1Z"/><path class="cls-1" d="M118,366.2a.76385.76385,0,0,0,.5-.2c.2-.1.3-.2.5-.3a.7808.7808,0,0,0,.4-.4l.4-.4c.1-.2.2-.3.3-.5s.1-.4.2-.5c0-.2.1-.4.1-.6a2.97992,2.97992,0,0,0-3.5-2.9,1.42135,1.42135,0,0,0-.6.2c-.2.1-.3.2-.5.3a.78085.78085,0,0,0-.4.4l-.4.4c-.1.2-.2.3-.3.5s-.1.4-.2.6c0,.2-.1.4-.1.6a1.26825,1.26825,0,0,0,.1.6.76389.76389,0,0,0,.2.5c.1.2.2.3.3.5a.78069.78069,0,0,0,.4.4l.4.4c.2.1.3.2.5.3s.4.1.6.2c.2,0,.4.1.6.1C117.6,366.2,117.8,366.2,118,366.2Z"/><path class="cls-1" d="M340.8,299.5a3.02071,3.02071,0,0,0-.8-4.1l-10.8-7.2a2.95382,2.95382,0,0,0-3.3,4.9l10.8,7.2a3.31985,3.31985,0,0,0,1.6.5A3.1271,3.1271,0,0,0,340.8,299.5Z"/><path class="cls-1" d="M363.8,317.3a.76381.76381,0,0,0,.5-.2,2.18689,2.18689,0,0,0,.5-.3.7808.7808,0,0,0,.4-.4l.4-.4c.1-.2.2-.3.3-.5s.1-.4.2-.5c0-.2.1-.4.1-.6a1.26823,1.26823,0,0,0-.1-.6,1.42124,1.42124,0,0,0-.2-.6c-.1-.2-.2-.3-.3-.5a.78076.78076,0,0,0-.4-.4l-.4-.4c-.2-.1-.3-.2-.5-.3s-.4-.1-.5-.2a2.04514,2.04514,0,0,0-1.1,0,1.42126,1.42126,0,0,0-.6.2c-.2.1-.3.2-.5.3a.78082.78082,0,0,0-.4.4l-.4.4c-.1.2-.2.3-.3.5s-.1.4-.2.6c0,.2-.1.4-.1.6a1.26836,1.26836,0,0,0,.1.6.76381.76381,0,0,0,.2.5c.1.2.2.3.3.5a.78082.78082,0,0,0,.4.4l.4.4c.2.1.3.2.5.3s.4.1.6.2c.2,0,.4.1.6.1A4.33241,4.33241,0,0,1,363.8,317.3Z"/><path class="cls-1" d="M69.1,120.4a.76391.76391,0,0,0,.5-.2c.2-.1.3-.2.5-.3a.78078.78078,0,0,0,.4-.4l.4-.4c.1-.2.2-.3.3-.5s.1-.4.2-.5c0-.2.1-.4.1-.6a2.87818,2.87818,0,0,0-.9-2.1l-.4-.4c-.2-.1-.3-.2-.5-.3s-.4-.1-.5-.2a2.04493,2.04493,0,0,0-1.1,0,1.42146,1.42146,0,0,0-.6.2c-.2.1-.3.2-.5.3a.78082.78082,0,0,0-.4.4,3.11817,3.11817,0,0,0-.9,2.1,1.26853,1.26853,0,0,0,.1.6.76389.76389,0,0,0,.2.5c.1.2.2.3.3.5a.78073.78073,0,0,0,.4.4l.4.4c.2.1.3.2.5.3s.4.1.6.2c.2,0,.4.1.6.1C68.7,120.5,68.9,120.5,69.1,120.4Z"/><path class="cls-1" d="M152.5,173.7a3.0207,3.0207,0,0,0-.8-4.1L95,131.7a2.95382,2.95382,0,0,0-3.3,4.9l56.7,37.9a3.31978,3.31978,0,0,0,1.6.5A2.98961,2.98961,0,0,0,152.5,173.7Z"/><path class="cls-1" d="M118,71.5a.76389.76389,0,0,0,.5-.2c.2-.1.3-.2.5-.3a.78074.78074,0,0,0,.4-.4l.4-.4c.1-.2.2-.3.3-.5s.1-.4.2-.5c0-.2.1-.4.1-.6a2.87817,2.87817,0,0,0-.9-2.1l-.4-.4c-.2-.1-.3-.2-.5-.3s-.4-.1-.5-.2a2.04514,2.04514,0,0,0-1.1,0,1.4214,1.4214,0,0,0-.6.2c-.2.1-.3.2-.5.3a.78071.78071,0,0,0-.4.4,3.11815,3.11815,0,0,0-.9,2.1,1.26823,1.26823,0,0,0,.1.6.76391.76391,0,0,0,.2.5c.1.2.2.3.3.5a.78078.78078,0,0,0,.4.4l.4.4c.2.1.3.2.5.3s.4.1.6.2c.2,0,.4.1.6.1C117.6,71.6,117.8,71.6,118,71.5Z"/><path class="cls-1" d="M168.7,145.5a3.002,3.002,0,0,0,.8-4.1L136.4,91.9a2.95382,2.95382,0,0,0-4.9,3.3l33.1,49.5a2.96254,2.96254,0,0,0,4.1.8Z"/><path class="cls-1" d="M299.3,340.9a3.00192,3.00192,0,0,0,.8-4.1L267,287.2a2.95382,2.95382,0,1,0-4.9,3.3l33.1,49.6a3.09026,3.09026,0,0,0,2.4,1.3A2.45788,2.45788,0,0,0,299.3,340.9Z"/><path class="cls-1" d="M316.4,365.4l.4-.4c.1-.2.2-.3.3-.5s.1-.4.2-.5c0-.2.1-.4.1-.6a2.87816,2.87816,0,0,0-.9-2.1l-.4-.4c-.2-.1-.3-.2-.5-.3s-.4-.1-.5-.2a2.04514,2.04514,0,0,0-1.1,0,1.42122,1.42122,0,0,0-.6.2c-.2.1-.3.2-.5.3a.78082.78082,0,0,0-.4.4,3.11813,3.11813,0,0,0-.9,2.1,1.26825,1.26825,0,0,0,.1.6.7638.7638,0,0,0,.2.5c.1.2.2.3.3.5a.78076.78076,0,0,0,.4.4l.4.4c.2.1.3.2.5.3s.4.1.6.2c.2,0,.4.1.6.1A8.15409,8.15409,0,0,0,316.4,365.4Z"/><path class="cls-1" d="M284.1,173.9,340,136.5a2.95382,2.95382,0,0,0-3.3-4.9L280.8,169a3.00194,3.00194,0,0,0-.8,4.1,3.09023,3.09023,0,0,0,2.4,1.3A2.61789,2.61789,0,0,0,284.1,173.9Z"/><path class="cls-1" d="M363.8,120.4a.76385.76385,0,0,0,.5-.2c.2-.1.3-.2.5-.3a.78071.78071,0,0,0,.4-.4l.4-.4c.1-.2.2-.3.3-.5s.1-.4.2-.5c0-.2.1-.4.1-.6a1.26831,1.26831,0,0,0-.1-.6,1.42129,1.42129,0,0,0-.2-.6c-.1-.2-.2-.3-.3-.5a.78078.78078,0,0,0-.4-.4l-.4-.4c-.2-.1-.3-.2-.5-.3s-.4-.1-.5-.2a2.04494,2.04494,0,0,0-1.1,0,1.4215,1.4215,0,0,0-.6.2c-.2.1-.3.2-.5.3a.78076.78076,0,0,0-.4.4,3.11817,3.11817,0,0,0-.9,2.1,1.26831,1.26831,0,0,0,.1.6.7639.7639,0,0,0,.2.5c.1.2.2.3.3.5a.78084.78084,0,0,0,.4.4l.4.4c.2.1.3.2.5.3s.4.1.6.2c.2,0,.4.1.6.1A.99632.99632,0,0,0,363.8,120.4Z"/><path class="cls-1" d="M69.1,317.3a.76387.76387,0,0,0,.5-.2c.2-.1.3-.2.5-.3a.78087.78087,0,0,0,.4-.4l.4-.4c.1-.2.2-.3.3-.5s.1-.4.2-.5c0-.2.1-.4.1-.6a1.26834,1.26834,0,0,0-.1-.6,1.42136,1.42136,0,0,0-.2-.6c-.1-.2-.2-.3-.3-.5a.78071.78071,0,0,0-.4-.4l-.4-.4c-.2-.1-.3-.2-.5-.3s-.4-.1-.5-.2a2.04513,2.04513,0,0,0-1.1,0,1.42122,1.42122,0,0,0-.6.2c-.2.1-.3.2-.5.3a.78087.78087,0,0,0-.4.4l-.4.4c-.1.2-.2.3-.3.5s-.1.4-.2.6c0,.2-.1.4-.1.6a1.26836,1.26836,0,0,0,.1.6.76389.76389,0,0,0,.2.5c.1.2.2.3.3.5a.78067.78067,0,0,0,.4.4l.4.4c.2.1.3.2.5.3s.4.1.6.2c.2,0,.4.1.6.1A4.33105,4.33105,0,0,1,69.1,317.3Z"/><path class="cls-1" d="M95.5,300l49.1-32.8a2.95381,2.95381,0,1,0-3.3-4.9L92.2,295.1a3.002,3.002,0,0,0-.8,4.1,3.09025,3.09025,0,0,0,2.4,1.3A3.37125,3.37125,0,0,0,95.5,300Z"/><path class="cls-1" d="M251,45.1a1.42132,1.42132,0,0,0,.6-.2c.2-.1.3-.2.5-.3a.78076.78076,0,0,0,.4-.4l.4-.4c.1-.2.2-.3.3-.5s.1-.4.2-.5c0-.2.1-.4.1-.6a1.26823,1.26823,0,0,0-.1-.6,1.42134,1.42134,0,0,0-.2-.6c-.1-.2-.2-.3-.3-.5a.78085.78085,0,0,0-.4-.4l-.4-.4c-.2-.1-.3-.2-.5-.3s-.4-.1-.6-.2a2.04518,2.04518,0,0,0-1.1,0,.76385.76385,0,0,0-.5.2c-.2.1-.3.2-.5.3a.78071.78071,0,0,0-.4.4l-.4.4c-.1.2-.2.3-.3.5s-.1.4-.2.6c0,.2-.1.4-.1.6a1.26834,1.26834,0,0,0,.1.6.76385.76385,0,0,0,.2.5c.1.2.2.3.3.5a.78087.78087,0,0,0,.4.4l.4.4c.2.1.3.2.5.3s.4.1.5.2c.2,0,.4.1.6.1A.74933.74933,0,0,1,251,45.1Z"/><path class="cls-1" d="M242.3,98.1l5.2-26a2.90258,2.90258,0,1,0-5.7-1.1l-5.2,26a2.87139,2.87139,0,0,0,2.3,3.4c.2,0,.4.1.6.1A3.07427,3.07427,0,0,0,242.3,98.1Z"/><path class="cls-1" d="M190,361.1l11.6-58.5a2.90259,2.90259,0,0,0-5.7-1.1L184.3,360a2.87138,2.87138,0,0,0,2.3,3.4c.2,0,.4.1.6.1A3.07432,3.07432,0,0,0,190,361.1Z"/><path class="cls-1" d="M181.9,392.7a1.42133,1.42133,0,0,0,.6-.2c.2-.1.3-.2.5-.3a.7808.7808,0,0,0,.4-.4,3.11812,3.11812,0,0,0,.9-2.1,1.26834,1.26834,0,0,0-.1-.6.76385.76385,0,0,0-.2-.5,2.1858,2.1858,0,0,0-.3-.5.78076.78076,0,0,0-.4-.4l-.4-.4c-.2-.1-.3-.2-.5-.3s-.4-.1-.6-.2a2.04494,2.04494,0,0,0-1.1,0,.7638.7638,0,0,0-.5.2,2.187,2.187,0,0,0-.5.3.78078.78078,0,0,0-.4.4l-.4.4c-.1.2-.2.3-.3.5s-.1.4-.2.5c0,.2-.1.4-.1.6a2.87823,2.87823,0,0,0,.9,2.1l.4.4c.2.1.3.2.5.3s.4.1.5.2c.2,0,.4.1.6.1A1.95219,1.95219,0,0,1,181.9,392.7Z"/><path class="cls-1" d="M363.2,245.3a2.87141,2.87141,0,0,0-2.3-3.4l-40.1-8a2.90259,2.90259,0,0,0-1.1,5.7l40.1,8c.2,0,.4.1.6.1A2.88154,2.88154,0,0,0,363.2,245.3Z"/><path class="cls-1" d="M78.4,246.5l34.3-6.8a2.90258,2.90258,0,1,0-1.1-5.7l-34.3,6.8a2.92145,2.92145,0,0,0-2.3,3.4,2.9873,2.9873,0,0,0,2.9,2.4A.74925.74925,0,0,1,78.4,246.5Z"/><path class="cls-1" d="M390.2,253.4a.7638.7638,0,0,0,.5-.2c.2-.1.3-.2.5-.3a.78076.78076,0,0,0,.4-.4l.4-.4c.1-.2.2-.3.3-.5s.1-.4.2-.6c0-.2.1-.4.1-.6a1.26834,1.26834,0,0,0-.1-.6.76379.76379,0,0,0-.2-.5c-.1-.2-.2-.3-.3-.5a.78087.78087,0,0,0-.4-.4l-.4-.4c-.2-.1-.3-.2-.5-.3s-.4-.1-.5-.2a2.045,2.045,0,0,0-1.1,0,1.42134,1.42134,0,0,0-.6.2c-.2.1-.3.2-.5.3a.78082.78082,0,0,0-.4.4,3.11812,3.11812,0,0,0-.9,2.1,1.2684,1.2684,0,0,0,.1.6,1.42122,1.42122,0,0,0,.2.6c.1.2.2.3.3.5a.78087.78087,0,0,0,.4.4l.4.4c.2.1.3.2.5.3s.4.1.6.2c.2,0,.4.1.6.1C389.8,253.5,390,253.5,390.2,253.4Z"/><path class="cls-1" d="M42.6,184.3a.76389.76389,0,0,0,.5-.2c.2-.1.3-.2.5-.3a.78074.78074,0,0,0,.4-.4l.4-.4c.1-.2.2-.3.3-.5s.1-.4.2-.6c0-.2.1-.4.1-.6a1.26838,1.26838,0,0,0-.1-.6.76385.76385,0,0,0-.2-.5c-.1-.2-.2-.3-.3-.5a.78073.78073,0,0,0-.4-.4l-.4-.4c-.2-.1-.3-.2-.5-.3s-.4-.1-.5-.2a2.04494,2.04494,0,0,0-1.1,0,1.42146,1.42146,0,0,0-.6.2c-.2.1-.3.2-.5.3a.78082.78082,0,0,0-.4.4l-.4.4c-.1.2-.2.3-.3.5s-.1.4-.2.5c0,.2-.1.4-.1.6a1.2684,1.2684,0,0,0,.1.6,1.42145,1.42145,0,0,0,.2.6c.1.2.2.3.3.5a.78074.78074,0,0,0,.4.4,3.11814,3.11814,0,0,0,2.1.9C42.3,184.4,42.5,184.3,42.6,184.3Z"/><path class="cls-1" d="M136.8,200.3a2.87137,2.87137,0,0,0-2.3-3.4l-30.8-6.1a2.90259,2.90259,0,0,0-1.1,5.7l30.8,6.1c.2,0,.4.1.6.1A3.07429,3.07429,0,0,0,136.8,200.3Z"/><path class="cls-1" d="M218.8,72.3V2.9a2.9,2.9,0,1,0-5.8,0V72.3a2.9,2.9,0,1,0,5.8,0Z"/><path class="cls-1" d="M218.8,429.1V303.7a2.9,2.9,0,0,0-5.8,0V429.1a2.9,2.9,0,0,0,5.8,0Z"/><path class="cls-1" d="M431.9,216a2.90206,2.90206,0,0,0-2.9-2.9H308.3a2.9,2.9,0,0,0,0,5.8H428.9A2.92518,2.92518,0,0,0,431.9,216Z"/><path class="cls-1" d="M276.4,159.6l92.2-92.2a2.89914,2.89914,0,0,0-4.1-4.1l-92.2,92.2a2.95948,2.95948,0,0,0,0,4.1,2.87814,2.87814,0,0,0,2.1.9A2.82912,2.82912,0,0,0,276.4,159.6Z"/><path class="cls-1" d="M67.3,368.7,156,280a2.89914,2.89914,0,0,0-4.1-4.1L63.2,364.6a2.95947,2.95947,0,0,0,0,4.1,2.87812,2.87812,0,0,0,2.1.9A3.01346,3.01346,0,0,0,67.3,368.7Z"/><path class="cls-1" d="M368.6,368.7a2.95945,2.95945,0,0,0,0-4.1l-80.1-80.1a2.89914,2.89914,0,0,0-4.1,4.1l80.1,80.1a2.87807,2.87807,0,0,0,2.1.9A2.82922,2.82922,0,0,0,368.6,368.7Z"/><path class="cls-1" d="M160.2,160.4a2.95945,2.95945,0,0,0,0-4.1l-93-93a2.89914,2.89914,0,0,0-4.1,4.1l93,93a2.87812,2.87812,0,0,0,2.1.9A3.67173,3.67173,0,0,0,160.2,160.4Z"/><path class="cls-1" d="M179.1,127.2a2.90867,2.90867,0,0,0,1.6-3.8L137,18a2.91548,2.91548,0,0,0-5.4,2.2l43.6,105.4a3.04478,3.04478,0,0,0,2.7,1.8A2.53712,2.53712,0,0,0,179.1,127.2Z"/><path class="cls-1" d="M298.5,415.6a2.90863,2.90863,0,0,0,1.6-3.8L252.1,296a2.91547,2.91547,0,1,0-5.4,2.2l48,115.8a3.04475,3.04475,0,0,0,2.7,1.8A3.59515,3.59515,0,0,0,298.5,415.6Z"/><path class="cls-1" d="M291.5,187.8l122.3-50.7a2.91548,2.91548,0,1,0-2.2-5.4L289.3,182.4a2.90866,2.90866,0,0,0-1.6,3.8,3.04478,3.04478,0,0,0,2.7,1.8A1.46525,1.46525,0,0,0,291.5,187.8Z"/><path class="cls-1" d="M20.1,300.2l20.8-8.6a2.91548,2.91548,0,0,0-2.2-5.4l-20.8,8.6a2.90864,2.90864,0,0,0-1.6,3.8,3.04476,3.04476,0,0,0,2.7,1.8A1.3885,1.3885,0,0,0,20.1,300.2Z"/><path class="cls-1" d="M257,124.2l43.1-104a2.91547,2.91547,0,1,0-5.4-2.2L251.6,122a2.90865,2.90865,0,0,0,1.6,3.8,2.15321,2.15321,0,0,0,1.1.2A2.70417,2.70417,0,0,0,257,124.2Z"/><path class="cls-1" d="M137,414l48-115.8a2.91548,2.91548,0,0,0-5.4-2.2l-48,115.8a2.90862,2.90862,0,0,0,1.6,3.8,2.15313,2.15313,0,0,0,1.1.2A2.83734,2.83734,0,0,0,137,414Z"/><path class="cls-1" d="M415.4,298.7a2.90863,2.90863,0,0,0-1.6-3.8l-44.1-18.3a2.91547,2.91547,0,1,0-2.2,5.4l44.1,18.3a2.15315,2.15315,0,0,0,1.1.2A2.83729,2.83729,0,0,0,415.4,298.7Z"/><path class="cls-1" d="M143.3,182.8,129.2,177,20.1,131.8a2.91548,2.91548,0,0,0-2.2,5.4L127,182.4l14.1,5.8a2.15322,2.15322,0,0,0,1.1.2,3.04477,3.04477,0,0,0,2.7-1.8A2.90867,2.90867,0,0,0,143.3,182.8Z"/><path class="cls-1" d="M127.3,216a2.90207,2.90207,0,0,0-2.9-2.9H83.8a2.9,2.9,0,1,0,0,5.8h40.6A2.96842,2.96842,0,0,0,127.3,216Z"/><path class="cls-1" d="M16.1,216a2.90207,2.90207,0,0,0-2.9-2.9H2.9a2.9,2.9,0,1,0,0,5.8H13.2A2.90207,2.90207,0,0,0,16.1,216Z"/></g></g></svg>