<svg id="Layer_1" data-name="Layer 1" xmlns="http://www.w3.org/2000/svg" viewBox="0 0 251 251"><defs><style>.cls-1{fill:#231f20;}</style></defs><title>logo-avfti</title><path class="cls-1" d="M152.812,176.20271l-26.13526,45.26218a1.89641,1.89641,0,0,1-3.28469,0L68.5341,126.44824,13.67621,31.43153a1.89642,1.89642,0,0,1,1.64234-2.84463H67.43921a1.89642,1.89642,0,0,1,1.64234.94821l55.95279,96.91313,27.80058,47.899A1.89642,1.89642,0,0,1,152.812,176.20271Z"/><path class="cls-1" d="M163.41772,73.81879l.014-6.66305a1.64879,1.64879,0,0,0-1.64879-1.65226H139.30308a1.6488,1.6488,0,0,1-1.42314-2.48139l19.66824-33.619a1.64878,1.64878,0,0,1,1.42314-.81621h31.53a1.6488,1.6488,0,0,1,1.39533,2.5272L175.23309,59.79233l-8.77124,14.90832A1.6488,1.6488,0,0,1,163.41772,73.81879Z"/><path class="cls-1" d="M208.84568,73.81879l.014-6.66305a1.6488,1.6488,0,0,0-1.6488-1.65226H184.731a1.6488,1.6488,0,0,1-1.42314-2.48139l19.66824-33.619a1.64881,1.64881,0,0,1,1.42314-.81621h31.53a1.64881,1.64881,0,0,1,1.39534,2.5272L220.661,59.79233l-8.77123,14.90832A1.6488,1.6488,0,0,1,208.84568,73.81879Z"/></svg>